<svg width="49" height="48" viewBox="0 0 49 48" fill="none" xmlns="http://www.w3.org/2000/svg">
<path d="M31.9335 33.5665L34.367 31.1335L26.6 23.3335V13.5665H23.267V24.6665L31.9335 33.5665ZM24.8335 44C22.0892 44 19.5003 43.475 17.067 42.425C14.6337 41.375 12.5113 39.9445 10.7 38.1335C8.889 36.3222 7.4585 34.1998 6.4085 31.7665C5.3585 29.3332 4.8335 26.7443 4.8335 24C4.8335 21.2557 5.3585 18.6668 6.4085 16.2335C7.4585 13.8002 8.889 11.6778 10.7 9.8665C12.5113 8.0555 14.6337 6.625 17.067 5.575C19.5003 4.525 22.0892 4 24.8335 4C27.5778 4 30.1667 4.525 32.6 5.575C35.0333 6.625 37.1557 8.0555 38.967 9.8665C40.778 11.6778 42.2085 13.8002 43.2585 16.2335C44.3085 18.6668 44.8335 21.2557 44.8335 24C44.8335 26.7443 44.3085 29.3332 43.2585 31.7665C42.2085 34.1998 40.778 36.3222 38.967 38.1335C37.1557 39.9445 35.0333 41.375 32.6 42.425C30.1667 43.475 27.5778 44 24.8335 44ZM24.8335 40.6665C29.4225 40.6665 33.3475 39.036 36.6085 35.775C39.8695 32.514 41.5 28.589 41.5 24C41.5 19.411 39.8695 15.486 36.6085 12.225C33.3475 8.964 29.4225 7.3335 24.8335 7.3335C20.2445 7.3335 16.3195 8.964 13.0585 12.225C9.7975 15.486 8.167 19.411 8.167 24C8.167 28.589 9.7975 32.514 13.0585 35.775C16.3195 39.036 20.2445 40.6665 24.8335 40.6665Z" fill="#E8EAED"/>
</svg>