<svg width="49" height="48" viewBox="0 0 49 48" fill="none" xmlns="http://www.w3.org/2000/svg">
<path d="M24.7337 42C19.8894 42 15.7422 40.3195 12.2922 36.9585C8.84219 33.5972 7.03385 29.4888 6.86719 24.6335H10.2337C10.3894 28.5668 11.8589 31.889 14.6422 34.6C17.4255 37.311 20.7894 38.6665 24.7337 38.6665C28.856 38.6665 32.3477 37.2248 35.2087 34.3415C38.0697 31.4582 39.5002 27.9555 39.5002 23.8335C39.5002 19.7778 38.0585 16.3472 35.1752 13.5415C32.2919 10.7362 28.8114 9.3335 24.7337 9.3335C22.456 9.3335 20.3227 9.85567 18.3337 10.9C16.3447 11.9443 14.6335 13.3443 13.2002 15.1H18.5337V18.4335H7.56719V7.5H10.9002V12.6C12.6225 10.5333 14.6865 8.91667 17.0922 7.75C19.4975 6.58333 22.0447 6 24.7337 6C27.2337 6 29.5809 6.4695 31.7752 7.4085C33.9699 8.34717 35.8865 9.62483 37.5252 11.2415C39.1642 12.8582 40.4587 14.7527 41.4087 16.925C42.3587 19.0973 42.8337 21.4335 42.8337 23.9335C42.8337 26.4335 42.3587 28.7807 41.4087 30.975C40.4587 33.1693 39.1642 35.0805 37.5252 36.7085C35.8865 38.3362 33.9699 39.625 31.7752 40.575C29.5809 41.525 27.2337 42 24.7337 42ZM30.8672 32.2335L23.2002 24.6335V13.9H26.5337V23.2665L33.2337 29.8665L30.8672 32.2335Z" fill="#E8EAED"/>
</svg>